<?xml version="1.0" standalone="no"?>
<!DOCTYPE svg PUBLIC "-//W3C//DTD SVG 20010904//EN"
 "http://www.w3.org/TR/2001/REC-SVG-20010904/DTD/svg10.dtd">
<svg version="1.0" xmlns="http://www.w3.org/2000/svg"
 width="835.000000pt" height="835.000000pt" viewBox="0 0 835.000000 835.000000"
 preserveAspectRatio="xMidYMid meet">
<metadata>
Created by potrace 1.14, written by Peter Selinger 2001-2017
</metadata>
<g transform="translate(0.000000,835.000000) scale(0.100000,-0.100000)"
fill="#000000" stroke="none">
<path d="M2645 5295 l0 -1095 157 0 157 0 3 498 3 498 30 59 c18 35 44 69 64
82 66 44 152 20 189 -54 43 -84 46 -127 46 -615 l1 -468 158 0 158 0 -2 513
c-1 394 -4 533 -15 601 -34 210 -109 343 -222 398 -133 64 -283 9 -381 -139
l-31 -46 0 431 0 432 -158 0 -157 0 0 -1095z"/>
<path d="M1253 6331 c-56 -41 -78 -100 -78 -211 0 -99 24 -160 77 -201 45 -33
120 -34 167 0 46 33 83 116 84 189 1 96 -20 159 -69 209 -39 39 -48 43 -92 43
-38 0 -58 -6 -89 -29z"/>
<path d="M2020 5726 c-25 -7 -60 -20 -77 -30 -18 -9 -35 -17 -37 -17 -8 0 -80
-75 -102 -106 -65 -88 -95 -203 -90 -343 4 -115 23 -178 77 -259 49 -73 92
-109 217 -181 57 -33 105 -68 117 -86 24 -35 31 -98 16 -138 -36 -92 -210 -85
-357 13 l-43 29 -5 -26 c-7 -32 -26 -153 -33 -202 -2 -19 -8 -50 -13 -68 -8
-29 -5 -34 25 -58 115 -88 359 -108 504 -42 104 47 195 171 221 302 20 100 17
237 -8 321 -33 109 -125 221 -224 271 -92 47 -158 93 -178 126 -35 56 -13 139
43 169 51 28 154 10 238 -41 l46 -28 27 160 c31 180 35 164 -50 203 -94 43
-223 56 -314 31z"/>
<path d="M6840 5733 c-133 -20 -307 -104 -296 -141 3 -10 7 -28 10 -42 8 -48
43 -228 45 -238 1 -2 20 10 44 26 67 45 144 73 216 79 55 4 73 1 111 -19 55
-28 86 -79 89 -148 l2 -50 -53 -1 c-142 -2 -287 -55 -375 -137 -37 -35 -103
-123 -103 -137 0 -4 -7 -21 -15 -38 -42 -91 -56 -288 -29 -406 19 -79 63 -169
110 -221 121 -134 346 -111 457 46 l32 46 7 -29 c4 -15 10 -49 13 -75 l6 -48
138 0 138 0 -4 368 c-4 456 -10 698 -18 737 -15 75 -36 149 -54 188 -11 23
-19 44 -18 47 4 18 -116 134 -162 156 -79 38 -194 52 -291 37z m231 -845 c3
-136 -4 -223 -22 -266 -43 -100 -120 -144 -194 -110 -71 32 -97 179 -50 274
37 74 118 119 222 123 38 1 43 -1 44 -21z"/>
<path d="M7872 5717 c-92 -31 -175 -106 -222 -202 -45 -90 -58 -154 -55 -269
3 -122 7 -143 46 -223 41 -85 125 -167 232 -226 127 -70 152 -97 156 -172 2
-48 -28 -101 -65 -115 -77 -30 -239 14 -326 88 -10 8 -18 13 -18 10 0 -2 -4
-29 -10 -59 -5 -30 -12 -74 -15 -99 -4 -24 -8 -47 -11 -51 -2 -4 -6 -35 -10
-71 l-6 -64 63 -31 c92 -45 120 -52 226 -60 234 -18 411 111 464 337 12 53 16
209 6 260 -33 170 -108 265 -282 360 -89 48 -125 79 -142 118 -15 37 -11 95
10 123 46 62 167 57 278 -11 l47 -28 6 41 c9 63 16 104 32 187 8 41 14 80 14
87 0 18 -117 70 -188 83 -84 15 -161 11 -230 -13z"/>
<path d="M3 5623 c3 -49 13 -115 21 -148 13 -54 61 -248 70 -285 52 -212 68
-278 71 -290 2 -8 13 -53 25 -100 12 -47 23 -92 25 -101 6 -32 107 -445 114
-469 l8 -25 158 0 159 0 164 655 c90 360 173 691 183 735 11 44 22 88 25 98 5
16 -6 17 -163 15 l-168 -3 -6 -35 c-10 -54 -48 -262 -54 -290 -6 -30 -22 -122
-30 -170 -3 -19 -8 -42 -10 -50 -2 -8 -7 -28 -10 -45 -2 -16 -9 -55 -15 -85
-5 -30 -12 -73 -16 -95 -18 -125 -45 -289 -48 -292 -2 -2 -7 29 -11 69 -5 40
-9 75 -10 78 0 3 -4 28 -9 55 -7 50 -94 505 -122 645 -9 41 -18 86 -20 100 -2
14 -9 46 -15 73 l-11 47 -155 0 -155 0 5 -87z"/>
<path d="M1179 5708 c-1 -2 -2 -342 -3 -755 l-1 -753 157 0 158 0 0 755 0 755
-155 0 c-85 0 -156 -1 -156 -2z"/>
<path d="M3760 5706 c0 -5 160 -362 229 -511 20 -44 52 -114 70 -155 l33 -76
-35 -74 c-19 -41 -41 -91 -50 -110 -8 -19 -37 -84 -65 -145 -27 -60 -66 -148
-87 -195 -21 -47 -53 -118 -71 -158 -19 -41 -34 -75 -34 -78 0 -2 78 -4 173
-4 l173 0 16 48 c77 230 157 451 161 445 2 -4 12 -33 22 -63 16 -53 44 -131
70 -195 7 -16 29 -76 50 -132 l38 -103 178 0 178 0 -15 38 c-35 82 -217 510
-234 547 -47 103 -83 191 -82 205 0 14 17 50 119 270 20 41 49 104 65 140 17
36 46 99 65 140 40 86 73 160 73 166 0 2 -76 4 -169 4 l-169 0 -10 -27 c-26
-66 -106 -294 -129 -366 -22 -72 -26 -77 -38 -60 -8 10 -15 23 -15 30 0 11
-68 197 -90 248 -5 11 -23 55 -40 98 l-32 77 -174 0 c-96 0 -174 -2 -174 -4z"/>
<path d="M4874 5688 c29 -149 129 -659 132 -678 3 -14 11 -56 19 -95 8 -38 17
-86 20 -105 3 -19 10 -53 15 -75 5 -22 11 -57 14 -79 4 -21 8 -41 11 -45 2 -4
6 -28 9 -53 3 -25 8 -52 11 -59 2 -8 6 -25 9 -39 2 -14 14 -78 26 -143 l23
-118 150 3 c124 3 151 6 153 18 1 8 14 78 29 155 15 77 29 151 31 165 3 14 9
48 14 75 42 212 76 432 82 528 1 21 6 41 10 43 5 3 8 2 6 -3 -2 -7 9 -114 17
-167 4 -23 15 -107 20 -146 3 -23 20 -127 31 -195 3 -16 11 -65 19 -107 8 -43
22 -113 30 -155 8 -43 17 -94 20 -113 3 -19 8 -50 11 -67 l6 -33 149 0 c82 0
149 2 149 4 0 2 13 66 29 142 26 124 78 375 86 414 4 18 135 658 140 683 2 10
7 26 9 35 3 9 8 34 10 56 3 21 8 46 11 56 3 10 8 29 10 42 3 13 7 35 11 51 l6
27 -156 0 c-118 0 -156 -3 -157 -12 -1 -7 -2 -17 -3 -23 -2 -13 -16 -112 -21
-145 -5 -36 -17 -112 -21 -135 -2 -11 -7 -45 -10 -75 -3 -30 -7 -57 -9 -60 -2
-3 -7 -33 -10 -65 -4 -33 -9 -62 -10 -65 -2 -3 -6 -39 -10 -80 -4 -41 -9 -84
-11 -94 -2 -11 -8 -67 -15 -125 -6 -58 -12 -119 -14 -136 -2 -16 -4 -45 -4
-64 -1 -48 -9 -35 -16 25 -7 60 -14 111 -20 144 -5 28 -14 88 -21 139 -2 19
-6 46 -9 60 -2 14 -7 42 -10 61 -3 19 -7 46 -10 60 -3 14 -7 39 -9 55 -3 17
-17 100 -31 185 -14 85 -33 199 -42 253 l-16 98 -125 -3 -126 -3 -23 -130
c-26 -152 -25 -144 -53 -305 -12 -69 -24 -138 -26 -155 -3 -16 -9 -52 -14 -80
-5 -27 -12 -66 -14 -85 -3 -19 -8 -46 -10 -60 -7 -37 -16 -100 -22 -145 -2
-22 -6 -49 -9 -60 -2 -11 -4 -35 -4 -54 -2 -66 -12 -26 -26 104 -2 28 -7 68
-9 90 -9 77 -19 160 -21 176 -2 9 -6 40 -9 70 -4 30 -9 70 -12 89 -2 19 -7 53
-9 75 -3 22 -7 51 -10 65 -2 14 -7 50 -10 80 -3 30 -8 66 -11 80 -2 14 -6 43
-9 65 -8 78 -15 130 -21 158 l-6 27 -159 0 -159 0 4 -22z"/>
<path d="M7588 3554 c-2 -1 -30 -6 -63 -9 -141 -15 -236 -35 -360 -76 -99 -33
-277 -117 -316 -148 -51 -42 -69 -66 -69 -92 0 -32 32 -49 81 -43 61 7 103 12
169 19 36 4 83 9 105 11 22 3 70 6 106 8 36 1 70 5 75 8 13 7 361 1 418 -7 65
-9 147 -40 174 -65 12 -11 26 -39 33 -62 12 -45 6 -175 -11 -243 -5 -22 -13
-56 -16 -75 -9 -52 -124 -394 -188 -558 -59 -151 -63 -171 -44 -190 76 -76
347 227 486 544 78 176 142 393 160 539 13 113 8 277 -10 311 -15 27 -84 72
-123 80 -5 1 -44 9 -85 18 -41 8 -95 19 -120 22 -46 6 -397 13 -402 8z"/>
<path d="M43 3389 c-25 -9 -43 -38 -43 -70 0 -30 98 -125 290 -279 58 -46 107
-88 108 -92 2 -4 8 -8 14 -8 6 0 25 -12 43 -27 18 -16 57 -45 87 -66 29 -21
80 -58 113 -82 33 -25 65 -45 72 -45 6 0 13 -3 15 -7 8 -19 289 -192 488 -300
107 -58 332 -168 435 -213 11 -5 42 -19 69 -31 28 -12 91 -37 140 -56 50 -18
100 -38 111 -43 11 -5 72 -27 135 -49 440 -152 956 -266 1385 -306 39 -4 80
-8 92 -10 169 -27 884 -27 1098 0 17 2 57 7 90 10 105 10 287 36 400 56 61 11
126 22 145 25 19 3 51 9 70 14 19 5 49 11 65 14 131 23 591 151 709 198 28 11
52 19 54 18 6 -3 308 114 392 152 30 14 58 26 62 27 10 2 142 66 263 129 50
25 100 51 112 56 13 6 23 14 23 19 0 4 4 7 9 7 13 0 155 82 159 92 2 4 10 8
18 8 8 0 14 5 14 10 0 6 6 10 13 10 11 0 109 65 234 155 103 75 102 185 -2
225 -47 18 -77 11 -279 -69 -413 -163 -731 -262 -1186 -370 -86 -20 -405 -85
-470 -95 -19 -3 -46 -8 -60 -10 -71 -13 -308 -44 -460 -61 -30 -4 -68 -8 -85
-10 -16 -2 -75 -6 -130 -10 -55 -4 -116 -9 -135 -12 -65 -8 -774 -10 -885 -2
-60 4 -146 10 -190 13 -200 14 -611 63 -755 91 -14 2 -63 11 -110 19 -47 8
-121 22 -165 31 -44 10 -90 19 -103 21 -38 7 -273 62 -334 79 -137 36 -168 44
-258 70 -96 27 -510 163 -565 186 -16 7 -34 13 -40 15 -15 3 -320 127 -390
158 -33 15 -87 39 -120 54 -96 42 -516 256 -562 285 -24 15 -45 27 -49 27 -3
0 -18 8 -32 19 -37 25 -93 40 -119 30z"/>
</g>
</svg>
